<svg width="47" height="47" viewBox="0 0 47 47" fill="none" xmlns="http://www.w3.org/2000/svg">
<rect width="47" height="47" rx="5" fill="#ED3A3A"/>
<path d="M24.556 15V21.3204C24.556 21.6519 24.548 21.9761 24.532 22.2928C24.516 22.6096 24.496 22.93 24.472 23.2541C24.448 23.5709 24.416 23.8987 24.376 24.2376C24.344 24.5691 24.304 24.9263 24.256 25.3094H22.816C22.768 24.9263 22.724 24.5691 22.684 24.2376C22.652 23.8987 22.624 23.5709 22.6 23.2541C22.576 22.93 22.556 22.6096 22.54 22.2928C22.524 21.9761 22.516 21.6519 22.516 21.3204V15H24.556ZM22 29.6188C22 29.4273 22.036 29.2468 22.108 29.0773C22.188 28.9079 22.296 28.7606 22.432 28.6354C22.568 28.5101 22.724 28.4107 22.9 28.337C23.084 28.2634 23.284 28.2265 23.5 28.2265C23.708 28.2265 23.9 28.2634 24.076 28.337C24.26 28.4107 24.42 28.5101 24.556 28.6354C24.692 28.7606 24.8 28.9079 24.88 29.0773C24.96 29.2468 25 29.4273 25 29.6188C25 29.8177 24.96 30.0018 24.88 30.1713C24.8 30.3333 24.692 30.477 24.556 30.6022C24.42 30.7274 24.26 30.8232 24.076 30.8895C23.9 30.9632 23.708 31 23.5 31C23.284 31 23.084 30.9632 22.9 30.8895C22.724 30.8232 22.568 30.7274 22.432 30.6022C22.296 30.477 22.188 30.3333 22.108 30.1713C22.036 30.0018 22 29.8177 22 29.6188Z" fill="white"/>
</svg>
