<svg width="47" height="47" viewBox="0 0 47 47" fill="none" xmlns="http://www.w3.org/2000/svg">
<rect width="47" height="47" rx="5" fill="#46C6CE"/>
<path d="M24.5512 19.891V31H22.4488V19.891H24.5512ZM25 16.4037C25 16.5938 24.9567 16.7729 24.8701 16.9411C24.7913 17.1019 24.6811 17.2481 24.5394 17.3797C24.4055 17.504 24.2441 17.6027 24.0551 17.6758C23.874 17.7489 23.6811 17.7855 23.4764 17.7855C23.2717 17.7855 23.0787 17.7489 22.8976 17.6758C22.7244 17.6027 22.5709 17.504 22.437 17.3797C22.3031 17.2481 22.1969 17.1019 22.1181 16.9411C22.0394 16.7729 22 16.5938 22 16.4037C22 16.2136 22.0394 16.0345 22.1181 15.8663C22.1969 15.6909 22.3031 15.541 22.437 15.4167C22.5709 15.2851 22.7244 15.1828 22.8976 15.1097C23.0787 15.0366 23.2717 15 23.4764 15C23.6811 15 23.874 15.0366 24.0551 15.1097C24.2441 15.1828 24.4055 15.2851 24.5394 15.4167C24.6811 15.541 24.7913 15.6909 24.8701 15.8663C24.9567 16.0345 25 16.2136 25 16.4037Z" fill="white"/>
</svg>
