<svg width="25" height="17" viewBox="0 0 25 17" fill="none" xmlns="http://www.w3.org/2000/svg">
<path fill-rule="evenodd" clip-rule="evenodd" d="M12.5062 0C15.3482 0.0345058 17.8739 0.81273 20.0655 2.34183C22.2809 3.86386 23.9025 5.85741 24.9226 8.3136L25 8.49992L24.9226 8.68625C23.9025 11.1425 22.2809 13.136 20.0654 14.658C17.8738 16.1871 15.3482 16.9653 12.5062 16.9998L12.4938 17C9.65109 16.9655 7.10948 16.1868 4.88518 14.6591L4.88209 14.657C2.7004 13.1343 1.09687 11.1409 0.0773856 8.68625L0 8.49992L0.0773856 8.3136C1.09687 5.85899 2.7004 3.86554 4.88209 2.3429L4.88517 2.34075C7.10948 0.813012 9.65109 0.0345138 12.4938 0H12.5062ZM5.4605 3.14768C3.4916 4.52221 2.0346 6.30334 1.08409 8.49992C2.0346 10.6965 3.49161 12.4777 5.46052 13.8522C7.50888 15.2586 9.84999 15.9811 12.5 16.0143C15.1506 15.9811 17.4738 15.2583 19.487 13.8533L19.4901 13.8511C21.4922 12.476 22.9651 10.695 23.9159 8.49992C22.9651 6.30484 21.4922 4.52382 19.4901 3.14872L19.487 3.14658C17.4738 1.74151 15.1506 1.01876 12.5 0.985504C9.84998 1.01876 7.50886 1.74122 5.4605 3.14768Z" fill="#5F5F5F"/>
<path d="M14.79 6.24789C14.1793 5.64735 13.416 5.3304 12.5 5.29703C11.584 5.3304 10.8207 5.64735 10.21 6.24789C9.59936 6.84843 9.29403 7.59911 9.29403 8.49992C9.29403 9.40073 9.59936 10.1514 10.21 10.7519C10.8207 11.3525 11.584 11.6528 12.5 11.6528C13.416 11.6528 14.1793 11.3525 14.79 10.7519C15.4006 10.1514 15.706 9.40073 15.706 8.49992C15.706 7.59911 15.4006 6.84843 14.79 6.24789Z" fill="#5F5F5F"/>
</svg>
