<svg width="25" height="25" viewBox="0 0 25 25" fill="none" xmlns="http://www.w3.org/2000/svg">
<path fill-rule="evenodd" clip-rule="evenodd" d="M2.94266 1.19048C2.4191 1.19048 2.01488 1.35857 1.6867 1.68656C1.35855 2.01452 1.19048 2.41833 1.19048 2.94128V17.241C1.19048 17.7603 1.35689 18.1898 1.69508 18.5599C2.02175 18.8824 2.42354 19.0476 2.94266 19.0476H8.33333V23.2283C8.33333 23.415 8.3897 23.5396 8.49663 23.6452C8.60398 23.7513 8.73349 23.8095 8.92857 23.8095H9.55215C9.68885 23.8095 9.83481 23.7645 10.0019 23.6276L14.6365 19.0476H22.0573C22.5765 19.0476 22.9782 18.8824 23.3049 18.5599C23.6431 18.1898 23.8095 17.7603 23.8095 17.241V2.94128C23.8095 2.41833 23.6415 2.01452 23.3133 1.68656C22.9851 1.35857 22.5809 1.19048 22.0573 1.19048H2.94266ZM0.845156 0.844515C1.41123 0.27877 2.12484 0 2.94266 0H22.0573C22.8752 0 23.5888 0.27877 24.1548 0.844515C24.7209 1.41028 25 2.12363 25 2.94128V17.241C25 18.0581 24.7219 18.7803 24.1713 19.3764L24.1633 19.3852L24.1548 19.3936C23.5888 19.9593 22.8752 20.2381 22.0573 20.2381H15.1254L10.8046 24.5081L10.7872 24.5228C10.4319 24.8238 10.0158 25 9.55215 25H8.92857C8.44338 25 8.00599 24.8341 7.65983 24.492C7.31325 24.1495 7.14286 23.7139 7.14286 23.2283V20.2381H2.94266C2.12483 20.2381 1.41123 19.9593 0.845156 19.3936L0.836738 19.3852L0.828664 19.3764C0.278054 18.7803 0 18.0581 0 17.241V2.94128C0 2.12363 0.279057 1.41028 0.845156 0.844515Z" fill="#5F5F5F"/>
<path d="M9.34412 10.0292C9.34412 10.637 8.85135 11.1298 8.2435 11.1298C7.63564 11.1298 7.14288 10.637 7.14288 10.0292C7.14288 9.42133 7.63564 8.92856 8.2435 8.92856C8.85135 8.92856 9.34412 9.42133 9.34412 10.0292Z" fill="#5F5F5F"/>
<path d="M13.7466 10.0292C13.7466 10.637 13.2538 11.1298 12.646 11.1298C12.0381 11.1298 11.5454 10.637 11.5454 10.0292C11.5454 9.42133 12.0381 8.92856 12.646 8.92856C13.2538 8.92856 13.7466 9.42133 13.7466 10.0292Z" fill="#5F5F5F"/>
<path d="M18.1491 10.0292C18.1491 10.637 17.6563 11.1298 17.0485 11.1298C16.4406 11.1298 15.9478 10.637 15.9478 10.0292C15.9478 9.42133 16.4406 8.92856 17.0485 8.92856C17.6563 8.92856 18.1491 9.42133 18.1491 10.0292Z" fill="#5F5F5F"/>
</svg>
