<svg width="13" height="14" viewBox="0 0 13 14" fill="none" xmlns="http://www.w3.org/2000/svg">
<path d="M0 0.500244C0 0.367636 0.0526784 0.240459 0.146447 0.146691C0.240215 0.0529225 0.367392 0.000244141 0.5 0.000244141H12.5C12.6326 0.000244141 12.7598 0.0529225 12.8536 0.146691C12.9473 0.240459 13 0.367636 13 0.500244V2.50024C13 2.62355 12.9544 2.7425 12.872 2.83424L8.5 7.69224V12.5002C8.49992 12.6051 8.46685 12.7074 8.40547 12.7924C8.3441 12.8775 8.25752 12.9411 8.158 12.9742L5.158 13.9742C5.08287 13.9993 5.00288 14.0061 4.9246 13.9941C4.84632 13.9822 4.772 13.9518 4.70775 13.9056C4.6435 13.8593 4.59116 13.7984 4.55504 13.7279C4.51893 13.6575 4.50006 13.5794 4.5 13.5002V7.69224L0.128 2.83424C0.0456082 2.7425 2.21504e-05 2.62355 0 2.50024V0.500244ZM1 1.00024V2.30824L5.372 7.16624C5.45439 7.25799 5.49998 7.37694 5.5 7.50024V12.8062L7.5 12.1402V7.50024C7.50002 7.37694 7.54561 7.25799 7.628 7.16624L12 2.30824V1.00024H1Z" fill="#C62626"/>
</svg>
