<svg width="28" height="28" viewBox="0 0 28 28" fill="none" xmlns="http://www.w3.org/2000/svg">
<path d="M18.0831 16.3334H17.1614L16.8348 16.0184C18.2348 14.3851 18.9581 12.1567 18.5614 9.78839C18.0131 6.54506 15.3064 3.95506 12.0398 3.55839C7.10475 2.95173 2.95142 7.10506 3.55809 12.0401C3.95475 15.3067 6.54475 18.0134 9.78809 18.5617C12.1564 18.9584 14.3848 18.2351 16.0181 16.8351L16.3331 17.1617V18.0834L21.2914 23.0417C21.7698 23.5201 22.5514 23.5201 23.0298 23.0417C23.5081 22.5634 23.5081 21.7817 23.0298 21.3034L18.0831 16.3334ZM11.0831 16.3334C8.17809 16.3334 5.83309 13.9884 5.83309 11.0834C5.83309 8.17839 8.17809 5.83339 11.0831 5.83339C13.9881 5.83339 16.3331 8.17839 16.3331 11.0834C16.3331 13.9884 13.9881 16.3334 11.0831 16.3334Z" fill="#ED3A3A"/>
</svg>
