<svg width="64" height="35" viewBox="0 0 64 35" fill="none" xmlns="http://www.w3.org/2000/svg">
<path d="M0 24.2181L5.4802 13.2854L0 4.45926V24.2181Z" fill="#CC4747"/>
<path d="M2.48779 35L16.0806 22.4016L7.39071 26.1755L2.48779 35Z" fill="#E15858"/>
<path d="M13.1876 0L0.114258 25.4884L8.6224 21.1426L15.9808 12.1738L13.1876 0Z" fill="#E15858"/>
<path d="M8.6224 21.1426L0.114258 25.4884L7.39064 26.1755L16.0805 22.4016L8.6224 21.1426Z" fill="#CC4747"/>
<path d="M28.8914 8.76294H32.5095L38.8403 26.25H34.7334L33.3891 22.3335H27.9877L26.6675 26.25H22.5605L28.8914 8.76294ZM32.7298 19.5514L30.7004 13.368L28.6229 19.5514H32.7298Z" fill="#E15858"/>
<path d="M48.3728 16.6898C47.4947 16.6937 46.624 16.8522 45.7999 17.1581C45.0324 17.4552 44.4781 17.8986 44.1372 18.4884V26.25H40.2329V13.3194H43.8253V15.9299C44.2167 15.1184 44.8004 14.4166 45.525 13.8866C46.1681 13.4123 46.9394 13.1467 47.736 13.125H48.1284C48.2105 13.1257 48.2924 13.1344 48.3728 13.1509V16.6898Z" fill="#E15858"/>
<path d="M53.4801 26.4963C52.8769 26.5016 52.2777 26.3973 51.7112 26.1885C51.1909 25.9983 50.7137 25.7052 50.3074 25.3264C49.9152 24.957 49.5994 24.5132 49.378 24.0204C49.1469 23.5065 49.03 22.948 49.0354 22.3838C49.028 21.7762 49.1664 21.1758 49.4391 20.6338C49.7129 20.1043 50.1001 19.6427 50.5727 19.2824C51.0955 18.8874 51.6826 18.5875 52.3078 18.3961C53.0283 18.1741 53.7783 18.0648 54.5317 18.072C55.0562 18.0711 55.5797 18.1161 56.0964 18.2065C56.5524 18.2822 56.9964 18.419 57.4166 18.6132V18.0218C57.4166 16.5278 56.5589 15.7808 54.8437 15.7808C54.1595 15.7783 53.4805 15.899 52.8385 16.1373C52.1309 16.4139 51.4584 16.774 50.8348 17.21L49.6883 14.7454C50.5039 14.2017 51.3925 13.7782 52.3271 13.488C53.271 13.2049 54.2513 13.064 55.2361 13.0699C57.1754 13.0699 58.6762 13.5296 59.7386 14.4489C60.801 15.3682 61.3305 16.7147 61.3273 18.4885V21.8135C61.3273 22.2077 61.3884 22.4827 61.5106 22.6382C61.5937 22.7263 61.6933 22.7968 61.8038 22.8455C61.9143 22.8942 62.0333 22.9202 62.1539 22.9218V26.25C61.8484 26.3269 61.5377 26.381 61.2244 26.4121C60.9462 26.4364 60.6954 26.4493 60.467 26.4493C59.7338 26.4493 59.1795 26.3057 58.8043 26.0183C58.4219 25.7179 58.1681 25.2813 58.0952 24.7982L58.0228 24.2067C57.48 24.9226 56.782 25.504 55.9822 25.9065C55.205 26.2964 54.3483 26.4983 53.4801 26.4963ZM54.6298 23.6574C55.0513 23.6574 55.4694 23.5823 55.8648 23.4354C56.2307 23.3076 56.5671 23.1064 56.8537 22.844C57.2279 22.5491 57.4155 22.2375 57.4166 21.9091V20.6776C57.0558 20.5408 56.6833 20.4377 56.3038 20.3697C55.9376 20.2984 55.5656 20.261 55.1926 20.2579C54.5673 20.2312 53.9491 20.4011 53.4238 20.744C53.209 20.8803 53.0322 21.0695 52.9101 21.2938C52.788 21.518 52.7246 21.7699 52.7259 22.0257C52.7207 22.2493 52.7665 22.4711 52.8599 22.6739C52.9533 22.8768 53.0918 23.0553 53.2646 23.1956C53.6494 23.5107 54.1343 23.6748 54.6298 23.6574Z" fill="#E15858"/>
</svg>
