<?xml version="1.0" encoding="utf-8"?>
<!-- Generator: Adobe Illustrator 19.1.0, SVG Export Plug-In . SVG Version: 6.00 Build 0)  -->
<svg version="1.1" xmlns="http://www.w3.org/2000/svg" xmlns:xlink="http://www.w3.org/1999/xlink" x="0px" y="0px" width="24px"
	 height="24px" viewBox="0 0 24 24" enable-background="new 0 0 24 24" xml:space="preserve">
<g id="Bounding_Boxes">
	<path fill="none" d="M0,0h24v24H0V0z"/>
</g>
<g id="Rounded">
	<path d="M17.75,16L7.17,16c-2.09,0-3.95-1.53-4.15-3.61C2.79,10.01,4.66,8,7,8l12.36,0c1.31,0,2.5,0.94,2.63,2.24
		c0.15,1.5-1.02,2.76-2.49,2.76H9c-0.55,0-1-0.45-1-1s0.45-1,1-1h8.75c0.41,0,0.75-0.34,0.75-0.75v0c0-0.41-0.34-0.75-0.75-0.75
		l-8.61,0c-1.31,0-2.5,0.94-2.63,2.24C6.36,13.24,7.53,14.5,9,14.5l10.33,0c2.09,0,3.95-1.53,4.15-3.61
		c0.23-2.39-1.64-4.39-3.98-4.39l-12.27,0c-2.87,0-5.44,2.1-5.71,4.96C1.22,14.75,3.78,17.5,7,17.5h10.75
		c0.41,0,0.75-0.34,0.75-0.75l0,0C18.5,16.34,18.16,16,17.75,16z"/>
</g>
</svg>
