<?xml version="1.0" encoding="utf-8"?>
<!-- Generator: Adobe Illustrator 19.1.0, SVG Export Plug-In . SVG Version: 6.00 Build 0)  -->
<svg version="1.1" xmlns="http://www.w3.org/2000/svg" xmlns:xlink="http://www.w3.org/1999/xlink" x="0px" y="0px" width="24px"
	 height="24px" viewBox="0 0 24 24" enable-background="new 0 0 24 24" xml:space="preserve">
<g id="Bounding_Boxes">
	<g id="ui_x5F_spec_x5F_header_copy_2">
	</g>
	<path fill="none" d="M0,0h24v24H0V0z"/>
</g>
<g id="Rounded">
	<path d="M12,22c1.1,0,2-0.9,2-2h-4C10,21.1,10.89,22,12,22z M18,16v-5c0-3.07-1.64-5.64-4.5-6.32V4c0-0.83-0.67-1.5-1.5-1.5
		S10.5,3.17,10.5,4v0.68C7.63,5.36,6,7.92,6,11v5l-1.29,1.29C4.08,17.92,4.52,19,5.41,19h13.17c0.89,0,1.34-1.08,0.71-1.71L18,16z"
		/>
</g>
</svg>
