<svg xmlns="http://www.w3.org/2000/svg" id="Services-Geoul" width="92.773" height="34.407" viewBox="0 0 92.773 34.407">
    <defs>
        <style>
            .cls-1{fill:#0782a2}.cls-2{fill:#0c9fc6}
        </style>
    </defs>
    <path id="패스_74" d="M0 46.944L5.429 36.2 0 27.52z" class="cls-1" data-name="패스 74" transform="translate(0 -23.136)"/>
    <path id="패스_75" d="M15.47 150.635l13.465-12.385-8.608 3.71z" class="cls-2" data-name="패스 75" transform="translate(-13.006 -116.228)"/>
    <path id="패스_76" d="M13.66 0L.71 25.056l8.428-4.272 7.289-8.817z" class="cls-2" data-name="패스 76" transform="translate(-.597)"/>
    <path id="패스_77" d="M9.138 130.48L.71 134.752l7.208.675 8.608-3.71z" class="cls-1" data-name="패스 77" transform="translate(-.597 -109.696)"/>
    <path id="패스_78" d="M157.039 68.9a6.464 6.464 0 0 1-4.527 1.816 8.044 8.044 0 0 1-5.824-2.445 8.533 8.533 0 0 1-1.779-2.8 9.581 9.581 0 0 1-.653-3.6 8.615 8.615 0 0 1 .653-3.345 8.761 8.761 0 0 1 12.106-4.251 6.52 6.52 0 0 1 2.687 2.748l-2.953 2.23a4.234 4.234 0 0 0-1.684-1.8 4.664 4.664 0 0 0-2.389-.637 4.029 4.029 0 0 0-1.8.4 4.111 4.111 0 0 0-1.392 1.115 5.231 5.231 0 0 0-.9 1.658 6.434 6.434 0 0 0-.319 2.034 6.043 6.043 0 0 0 .339 2.058 5.01 5.01 0 0 0 .943 1.634 4.266 4.266 0 0 0 3.294 1.465 5.466 5.466 0 0 0 4.188-2.155V64.5h-3.345v-2.886h6.633V70.6h-3.283z" class="cls-2" data-name="패스 78" transform="translate(-121.277 -44.792)"/>
    <path id="패스_79" d="M261.755 93.853a7.514 7.514 0 0 1-2.867-.521 6.36 6.36 0 0 1-2.154-1.416 6.053 6.053 0 0 1-1.344-2.071 6.654 6.654 0 0 1-.46-2.456 7.307 7.307 0 0 1 .46-2.6 6.309 6.309 0 0 1 1.332-2.144 6.213 6.213 0 0 1 2.139-1.456 7.46 7.46 0 0 1 2.894-.532 7.364 7.364 0 0 1 2.88.532 6.339 6.339 0 0 1 2.131 1.434 6.085 6.085 0 0 1 1.319 2.095 6.978 6.978 0 0 1 .449 2.493c0 .226-.01.448-.025.666a4.751 4.751 0 0 1-.072.569h-9.4a2.619 2.619 0 0 0 .932 1.95 2.967 2.967 0 0 0 1.905.671 3.493 3.493 0 0 0 1.634-.411 2.111 2.111 0 0 0 1.053-1.115l3.293.921a5.929 5.929 0 0 1-2.324 2.445 7.193 7.193 0 0 1-3.775.946zm2.687-7.8a2.906 2.906 0 0 0-.871-1.911 2.628 2.628 0 0 0-1.865-.7 2.6 2.6 0 0 0-1.876.714 2.96 2.96 0 0 0-.859 1.9z" class="cls-2" data-name="패스 79" transform="translate(-214.321 -67.806)"/>
    <path id="패스_80" d="M353.523 93.869a7.451 7.451 0 0 1-2.893-.532 6.313 6.313 0 0 1-2.144-1.442 6.094 6.094 0 0 1-1.319-2.106 7.242 7.242 0 0 1 0-5.013 6.1 6.1 0 0 1 1.319-2.106 6.455 6.455 0 0 1 2.144-1.453 7.279 7.279 0 0 1 2.893-.545 7.2 7.2 0 0 1 2.882.545 6.458 6.458 0 0 1 2.13 1.453 6.225 6.225 0 0 1 1.332 2.106 6.923 6.923 0 0 1 .46 2.507 7.119 7.119 0 0 1-.448 2.506 6.119 6.119 0 0 1-1.319 2.111 6.314 6.314 0 0 1-2.144 1.442 7.452 7.452 0 0 1-2.893.527zm-2.832-6.585a3.521 3.521 0 0 0 .8 2.408 2.708 2.708 0 0 0 3.148.666 2.651 2.651 0 0 0 .884-.679 3.23 3.23 0 0 0 .593-1.053 3.97 3.97 0 0 0 .218-1.343 3.519 3.519 0 0 0-.8-2.41 2.566 2.566 0 0 0-2.01-.908 2.625 2.625 0 0 0-2.021.921 3.278 3.278 0 0 0-.594 1.053 4.02 4.02 0 0 0-.217 1.344z" class="cls-2" data-name="패스 80" transform="translate(-291.491 -67.822)"/>
    <path id="패스_81" d="M447.361 95.153a3.616 3.616 0 0 1-2.961-1.223 5.551 5.551 0 0 1-1.005-3.6V82.2h3.874v7.3a2.937 2.937 0 0 0 .46 1.779 1.529 1.529 0 0 0 1.306.618 3.011 3.011 0 0 0 1.5-.411 3.464 3.464 0 0 0 1.274-1.434V82.2h3.882v8.353a1.347 1.347 0 0 0 .182.811.9.9 0 0 0 .637.279v3.269a7.994 7.994 0 0 1-.945.159 7.66 7.66 0 0 1-.7.037q-2.084 0-2.373-1.623l-.073-.774a5.3 5.3 0 0 1-2.166 1.853 6.876 6.876 0 0 1-2.892.589z" class="cls-2" data-name="패스 81" transform="translate(-372.763 -69.106)"/>
    <path id="패스_82" d="M539.15 51h3.874v13.148q0 1.453 1.234 1.453a2.709 2.709 0 0 0 .637-.086 2.318 2.318 0 0 0 .637-.253l.51 2.905a7.516 7.516 0 0 1-1.66.538 8.832 8.832 0 0 1-1.768.194 3.53 3.53 0 0 1-2.566-.871 3.356 3.356 0 0 1-.9-2.518z" class="cls-2" data-name="패스 82" transform="translate(-453.269 -42.876)"/>
</svg>
