<svg xmlns="http://www.w3.org/2000/svg" id="Services-Ara" width="61.568" height="34.407" viewBox="0 0 61.568 34.407">
    <defs>
        <style>
            .cls-1{fill:#c62626}.cls-2{fill:#ed3a3a}
        </style>
    </defs>
    <path id="패스_83" d="M0 46.944L5.429 36.2 0 27.52z" class="cls-1" data-name="패스 83" transform="translate(0 -23.136)"/>
    <path id="패스_84" d="M15.47 150.635l13.465-12.385-8.608 3.71z" class="cls-2" data-name="패스 84" transform="translate(-13.006 -116.228)"/>
    <path id="패스_85" d="M13.66 0L.71 25.056l8.428-4.272 7.289-8.817z" class="cls-2" data-name="패스 85" transform="translate(-.597)"/>
    <path id="패스_86" d="M9.138 130.48L.71 134.752l7.208.675 8.608-3.71z" class="cls-1" data-name="패스 86" transform="translate(-.597 -109.696)"/>
    <path id="패스_87" d="M146.571 54.08h3.584l6.271 17.191h-4.068l-1.332-3.85h-5.351l-1.308 3.85H140.3zm3.8 10.605l-2.01-6.078-2.058 6.078z" class="cls-2" data-name="패스 87" transform="translate(-117.952 -45.466)"/>
    <path id="패스_88" d="M258.263 84.5a7.468 7.468 0 0 0-2.549.46 3.1 3.1 0 0 0-1.647 1.308V93.9H250.2V81.191h3.559v2.566a5.4 5.4 0 0 1 1.684-2.009 3.887 3.887 0 0 1 2.19-.749h.389a1.264 1.264 0 0 1 .242.025z" class="cls-2" data-name="패스 88" transform="translate(-210.346 -68.098)"/>
    <path id="패스_89" d="M309.341 93.858a4.975 4.975 0 0 1-1.752-.3 4.113 4.113 0 0 1-1.391-.847 4.038 4.038 0 0 1-.921-1.284 3.81 3.81 0 0 1-.339-1.609 3.7 3.7 0 0 1 .4-1.72 3.959 3.959 0 0 1 1.123-1.328 5.558 5.558 0 0 1 1.719-.871 7.3 7.3 0 0 1 2.2-.319 8.963 8.963 0 0 1 1.55.132 5.138 5.138 0 0 1 1.308.4v-.581q0-2.2-2.549-2.2a5.686 5.686 0 0 0-1.986.35 9.521 9.521 0 0 0-1.985 1.054l-1.136-2.423a10.161 10.161 0 0 1 2.618-1.242 9.892 9.892 0 0 1 2.882-.411 6.642 6.642 0 0 1 4.46 1.356 4.934 4.934 0 0 1 1.574 3.971v3.269a1.347 1.347 0 0 0 .182.811.9.9 0 0 0 .637.279v3.272a6.372 6.372 0 0 1-.921.159 8.72 8.72 0 0 1-.75.037 2.7 2.7 0 0 1-1.647-.424 1.88 1.88 0 0 1-.7-1.2l-.072-.581a5.813 5.813 0 0 1-2.021 1.671 5.534 5.534 0 0 1-2.483.579zm1.139-2.791a3.538 3.538 0 0 0 1.223-.218 2.842 2.842 0 0 0 .98-.581 1.206 1.206 0 0 0 .558-.919v-1.211a6.227 6.227 0 0 0-1.1-.3 6.069 6.069 0 0 0-1.1-.11 2.99 2.99 0 0 0-1.752.478 1.48 1.48 0 0 0-.691 1.26 1.433 1.433 0 0 0 .534 1.15 2.032 2.032 0 0 0 1.348.451z" class="cls-2" data-name="패스 89" transform="translate(-256.365 -67.811)"/>
</svg>
