<svg xmlns="http://www.w3.org/2000/svg" id="Projects-SSO" width="69.825" height="34.407" viewBox="0 0 69.825 34.407">
    <defs>
        <style>
            .cls-1{fill:#233240}.cls-2{fill:#2c3e50}
        </style>
    </defs>
    <path id="패스_42" d="M0 46.944L5.429 36.2 0 27.52z" class="cls-1" data-name="패스 42" transform="translate(0 -23.136)"/>
    <path id="패스_43" d="M15.47 150.635l13.465-12.385-8.608 3.71z" class="cls-2" data-name="패스 43" transform="translate(-13.006 -116.228)"/>
    <path id="패스_44" d="M13.66 0L.71 25.056l8.428-4.272 7.289-8.817z" class="cls-2" data-name="패스 44" transform="translate(-.597)"/>
    <path id="패스_45" d="M9.138 130.48L.71 134.752l7.208.675 8.608-3.71z" class="cls-1" data-name="패스 45" transform="translate(-.597 -109.696)"/>
    <path id="패스_46" d="M154.265 58.41a2.4 2.4 0 0 0-.508-.363 9.719 9.719 0 0 0-1.09-.558 10.476 10.476 0 0 0-1.434-.508 5.725 5.725 0 0 0-1.55-.218q-2.131 0-2.131 1.434a1.129 1.129 0 0 0 .231.726 2.058 2.058 0 0 0 .677.521 6.3 6.3 0 0 0 1.126.424q.682.183 1.579.43a20.751 20.751 0 0 1 2.23.739 6 6 0 0 1 1.682.992 4.021 4.021 0 0 1 1.066 1.434 5.01 5.01 0 0 1 .374 2.034 5.1 5.1 0 0 1-.545 2.458 4.577 4.577 0 0 1-1.434 1.622 6.091 6.091 0 0 1-2.058.9 10.3 10.3 0 0 1-2.4.279 13.343 13.343 0 0 1-1.937-.147 13.738 13.738 0 0 1-1.937-.424 14.929 14.929 0 0 1-1.835-.659 10.163 10.163 0 0 1-1.634-.9l1.743-3.463a3.344 3.344 0 0 0 .629.46 9.4 9.4 0 0 0 1.321.679 13.489 13.489 0 0 0 1.752.605 7.385 7.385 0 0 0 1.961.266q2.106 0 2.106-1.284a1.086 1.086 0 0 0-.319-.8 2.957 2.957 0 0 0-.873-.569 9.291 9.291 0 0 0-1.319-.478q-.761-.217-1.658-.478a14.19 14.19 0 0 1-2.058-.787 5.416 5.416 0 0 1-1.434-.98 3.576 3.576 0 0 1-.854-1.287 4.744 4.744 0 0 1-.277-1.695 5.4 5.4 0 0 1 .508-2.389 5.185 5.185 0 0 1 1.379-1.752 6.01 6.01 0 0 1 2.021-1.077 8.044 8.044 0 0 1 2.434-.363 9.239 9.239 0 0 1 1.768.169 13.2 13.2 0 0 1 1.676.43 11.757 11.757 0 0 1 1.489.605q.69.339 1.274.677z" class="cls-2" data-name="패스 46" transform="translate(-120.003 -44.759)"/>
    <path id="패스_47" d="M247.778 58.427a2.38 2.38 0 0 0-.51-.363 9.442 9.442 0 0 0-1.09-.558 10.375 10.375 0 0 0-1.433-.506 5.724 5.724 0 0 0-1.55-.218q-2.131 0-2.131 1.434a1.129 1.129 0 0 0 .231.726 2.058 2.058 0 0 0 .677.521 6.3 6.3 0 0 0 1.126.424q.679.194 1.574.435a20.6 20.6 0 0 1 2.23.739 5.983 5.983 0 0 1 1.684.992 4.039 4.039 0 0 1 1.066 1.434 5.01 5.01 0 0 1 .374 2.034 5.1 5.1 0 0 1-.545 2.458 4.576 4.576 0 0 1-1.434 1.622 6.091 6.091 0 0 1-2.058.9 10.3 10.3 0 0 1-2.4.279 13.326 13.326 0 0 1-1.937-.147 13.69 13.69 0 0 1-1.932-.422 15.051 15.051 0 0 1-1.829-.666 10.164 10.164 0 0 1-1.634-.9L238 65.181a3.345 3.345 0 0 0 .637.46 9.456 9.456 0 0 0 1.319.679 13.657 13.657 0 0 0 1.752.605 7.405 7.405 0 0 0 1.962.266q2.106 0 2.106-1.284a1.082 1.082 0 0 0-.319-.8 2.926 2.926 0 0 0-.871-.569 9.293 9.293 0 0 0-1.319-.478c-.508-.145-1.062-.306-1.658-.478a14.121 14.121 0 0 1-2.058-.787 5.416 5.416 0 0 1-1.434-.98 3.576 3.576 0 0 1-.847-1.284 4.742 4.742 0 0 1-.27-1.69 5.4 5.4 0 0 1 .51-2.389 5.166 5.166 0 0 1 1.379-1.752 6.01 6.01 0 0 1 2.021-1.077 8.036 8.036 0 0 1 2.434-.363 9.208 9.208 0 0 1 1.767.169 13.151 13.151 0 0 1 1.653.427 11.757 11.757 0 0 1 1.489.605q.691.339 1.274.677z" class="cls-2" data-name="패스 47" transform="translate(-198.626 -44.776)"/>
    <path id="패스_48" d="M339.583 70.9a7.993 7.993 0 0 1-3.487-.75 8.557 8.557 0 0 1-2.687-1.974 8.948 8.948 0 0 1-1.732-2.8 8.8 8.8 0 0 1-.618-3.245 8.569 8.569 0 0 1 .637-3.269 8.659 8.659 0 0 1 4.521-4.678 8.215 8.215 0 0 1 3.434-.722 8 8 0 0 1 3.487.75 8.512 8.512 0 0 1 2.687 1.986 8.945 8.945 0 0 1 1.719 2.808 8.853 8.853 0 0 1 .605 3.2 8.557 8.557 0 0 1-.637 3.269 8.692 8.692 0 0 1-4.49 4.7 8.1 8.1 0 0 1-3.439.725zm-4.483-8.717a6.412 6.412 0 0 0 .291 1.926 5.1 5.1 0 0 0 .86 1.658 4.141 4.141 0 0 0 3.353 1.593 4.091 4.091 0 0 0 1.985-.46 4.291 4.291 0 0 0 1.4-1.2 5.225 5.225 0 0 0 .835-1.671 6.636 6.636 0 0 0 .28-1.9 6.469 6.469 0 0 0-.29-1.926 4.9 4.9 0 0 0-.873-1.645 4.33 4.33 0 0 0-1.416-1.139 4.2 4.2 0 0 0-1.916-.419 4.108 4.108 0 0 0-1.974.449 4.389 4.389 0 0 0-1.4 1.174 4.985 4.985 0 0 0-.847 1.658 6.636 6.636 0 0 0-.288 1.902z" class="cls-2" data-name="패스 48" transform="translate(-278.325 -44.949)"/>
</svg>
