<svg xmlns="http://www.w3.org/2000/svg" viewBox="0 0 398 216"><title>Services-Ara</title><polygon points="0 149.46 34.08 81.99 0 27.52 0 149.46" style="fill:#c62626"/><polygon points="15.47 216 100 138.25 45.96 161.54 15.47 216" style="fill:#ed3a3a"/><polygon points="82.01 0 0.71 157.3 53.62 130.48 99.38 75.13 82.01 0" style="fill:#ed3a3a"/><polygon points="53.62 130.48 0.71 157.3 45.96 161.54 100 138.25 53.62 130.48" style="fill:#c62626"/><path d="M179.67,54.08h22.5L241.54,162H216l-8.36-24.17H174.05L165.84,162H140.3Zm23.87,66.58L190.92,82.5,178,120.66Z" style="fill:#ed3a3a"/><path d="M300.82,103a46.88,46.88,0,0,0-16,2.89q-7.16,2.75-10.34,8.21V162H250.2V82.2h22.34V98.31A33.89,33.89,0,0,1,283.11,85.7,24.4,24.4,0,0,1,296.86,81h2.44a7.93,7.93,0,0,1,1.52.16Z" style="fill:#ed3a3a"/><path d="M332.58,163.52a31.23,31.23,0,0,1-11-1.9,25.82,25.82,0,0,1-8.73-5.32,25.34,25.34,0,0,1-5.78-8.06,23.91,23.91,0,0,1-2.13-10.1,23.25,23.25,0,0,1,2.51-10.8A24.86,24.86,0,0,1,314.5,119a34.89,34.89,0,0,1,10.79-5.47,45.8,45.8,0,0,1,13.83-2,56.27,56.27,0,0,1,9.73.83,32.26,32.26,0,0,1,8.21,2.51v-3.65q0-13.83-16-13.83a35.7,35.7,0,0,0-12.47,2.2,59.78,59.78,0,0,0-12.46,6.62L309,91a63.79,63.79,0,0,1,16.41-7.76,62.1,62.1,0,0,1,18.09-2.58q18.09,0,28,8.51t9.88,24.93v20.52q0,3.65,1.14,5.09a5.62,5.62,0,0,0,4,1.75V162a40,40,0,0,1-5.78,1c-1.73.15-3.29.23-4.71.23q-6.84,0-10.34-2.66a11.8,11.8,0,0,1-4.41-7.53l-.45-3.65a36.49,36.49,0,0,1-12.69,10.49A34.74,34.74,0,0,1,332.58,163.52ZM339.73,146a22.21,22.21,0,0,0,7.68-1.37,17.84,17.84,0,0,0,6.15-3.65q3.49-2.73,3.5-5.77v-7.6a39.09,39.09,0,0,0-6.92-1.9,38.1,38.1,0,0,0-6.91-.69,18.77,18.77,0,0,0-11,3,9.29,9.29,0,0,0-4.34,7.91,9,9,0,0,0,3.35,7.22A12.76,12.76,0,0,0,339.73,146Z" style="fill:#ed3a3a"/></svg>