<svg xmlns="http://www.w3.org/2000/svg" id="Services-OTL" width="68.885" height="34.407" viewBox="0 0 68.885 34.407">
    <defs>
        <style>
            .cls-1{fill:#c6324e}.cls-2{fill:#e54c65}
        </style>
    </defs>
    <path id="패스_67" d="M0 46.944L5.429 36.2 0 27.52z" class="cls-1" data-name="패스 67" transform="translate(0 -23.136)"/>
    <path id="패스_68" d="M15.47 150.635l13.465-12.385-8.608 3.71z" class="cls-2" data-name="패스 68" transform="translate(-13.006 -116.228)"/>
    <path id="패스_69" d="M13.66 0L.71 25.056l8.428-4.272 7.289-8.817z" class="cls-2" data-name="패스 69" transform="translate(-.597)"/>
    <path id="패스_70" d="M9.138 130.48L.71 134.752l7.208.675 8.608-3.71z" class="cls-1" data-name="패스 70" transform="translate(-.597 -109.696)"/>
    <path id="패스_71" d="M152.64 70.931a8 8 0 0 1-3.487-.75 8.575 8.575 0 0 1-2.687-1.974 8.976 8.976 0 0 1-1.728-2.8 8.828 8.828 0 0 1-.618-3.245 8.7 8.7 0 0 1 5.155-7.947 8.219 8.219 0 0 1 3.437-.715 8 8 0 0 1 3.495.744 8.512 8.512 0 0 1 2.687 1.986 8.977 8.977 0 0 1 1.72 2.808 8.852 8.852 0 0 1 .605 3.2 8.587 8.587 0 0 1-.637 3.269 8.688 8.688 0 0 1-4.492 4.7 8.1 8.1 0 0 1-3.45.724zm-4.479-8.716a6.462 6.462 0 0 0 .29 1.926 5.163 5.163 0 0 0 .86 1.658 4.215 4.215 0 0 0 1.416 1.164 4.165 4.165 0 0 0 1.937.436 4.086 4.086 0 0 0 1.985-.46 4.291 4.291 0 0 0 1.4-1.2 5.225 5.225 0 0 0 .835-1.671 6.58 6.58 0 0 0 .274-1.9 6.471 6.471 0 0 0-.29-1.926A4.895 4.895 0 0 0 156 58.6a4.353 4.353 0 0 0-1.418-1.139 4.2 4.2 0 0 0-1.924-.424 4.111 4.111 0 0 0-1.974.449 4.4 4.4 0 0 0-1.4 1.174 4.925 4.925 0 0 0-.847 1.658 6.581 6.581 0 0 0-.274 1.9z" class="cls-2" data-name="패스 71" transform="translate(-121.163 -44.981)"/>
    <path id="패스_72" d="M266.767 57.572h-5.229v13.7h-3.971v-13.7h-5.257V54.08h14.454z" class="cls-2" data-name="패스 72" transform="translate(-212.12 -45.466)"/>
    <path id="패스_73" d="M355.23 71.271V54.08h3.97v13.7h8.329v3.492z" class="cls-2" data-name="패스 73" transform="translate(-298.646 -45.466)"/>
</svg>
