<svg width="227" height="59" viewBox="0 0 227 59" fill="none" xmlns="http://www.w3.org/2000/svg">
<path d="M0 40.3551L9.20226 22.1438L0 7.43103V40.3551Z" fill="black"/>
<path d="M4.17651 58.3203L27 37.3275L12.4093 43.616L4.17651 58.3203Z" fill="black"/>
<path d="M22.1419 0L0.191406 42.4704L14.477 35.2293L26.832 20.2843L22.1419 0Z" fill="black"/>
<path d="M14.477 35.2294L0.191406 42.4705L12.4091 43.6147L26.9998 37.3262L14.477 35.2294Z" fill="black"/>
<path d="M80.2237 22.4761C80.1351 22.358 79.8252 22.1366 79.2938 21.8119C78.7624 21.4871 78.0982 21.1476 77.3012 20.7934C76.5041 20.4392 75.6333 20.1292 74.6886 19.8635C73.744 19.5978 72.7993 19.465 71.8546 19.465C69.2568 19.465 67.9579 20.3358 67.9579 22.0775C67.9579 22.6089 68.0908 23.0517 68.3565 23.406C68.6517 23.7602 69.065 24.0849 69.5963 24.3801C70.1572 24.6458 70.851 24.8967 71.6775 25.1329C72.5041 25.3691 73.4635 25.6348 74.5558 25.93C76.0613 26.3432 77.4193 26.8008 78.6296 27.3027C79.8399 27.775 80.8584 28.3802 81.685 29.1182C82.5411 29.8267 83.1905 30.6975 83.6333 31.7307C84.1056 32.7639 84.3418 34.0038 84.3418 35.4503C84.3418 37.2215 84.0023 38.7271 83.3233 39.9669C82.6739 41.1773 81.803 42.1662 80.7108 42.9337C79.6185 43.6718 78.3639 44.2179 76.9469 44.5721C75.5299 44.8969 74.0687 45.0592 72.5631 45.0592C71.4118 45.0592 70.231 44.9707 69.0207 44.7935C67.8103 44.6164 66.6295 44.3655 65.4782 44.0408C64.3269 43.6865 63.2052 43.2732 62.1129 42.8009C61.0502 42.3286 60.0612 41.7824 59.1461 41.1625L62.3343 34.8304C62.4524 34.978 62.8361 35.2584 63.4856 35.6717C64.135 36.085 64.9321 36.4983 65.8768 36.9116C66.8509 37.3249 67.9284 37.6939 69.1092 38.0186C70.2901 38.3433 71.4856 38.5057 72.696 38.5057C75.2643 38.5057 76.5484 37.7234 76.5484 36.1588C76.5484 35.5684 76.3565 35.0813 75.9728 34.6975C75.589 34.3138 75.0576 33.9743 74.3786 33.6791C73.6997 33.3544 72.8879 33.0592 71.9432 32.7935C71.0281 32.5278 70.0244 32.2326 68.9321 31.9079C67.4856 31.465 66.231 30.9927 65.1683 30.4909C64.1055 29.9595 63.2199 29.3543 62.5114 28.6754C61.8324 27.9964 61.3158 27.2141 60.9616 26.3285C60.6369 25.4429 60.4745 24.4097 60.4745 23.2288C60.4745 21.5757 60.7845 20.1144 61.4044 18.845C62.0243 17.5757 62.8657 16.5129 63.9284 15.6568C64.9911 14.7712 66.2162 14.107 67.6037 13.6642C69.0207 13.2214 70.5115 13 72.076 13C73.1683 13 74.2458 13.1033 75.3085 13.31C76.3713 13.5166 77.3897 13.7823 78.3639 14.107C79.3381 14.4317 80.2385 14.8007 81.065 15.214C81.9211 15.6273 82.7034 16.0406 83.4119 16.4539L80.2237 22.4761Z" fill="black"/>
<path d="M88.6031 44.705V13.2657H102.02C103.526 13.2657 104.898 13.5756 106.138 14.1956C107.408 14.8155 108.485 15.6273 109.371 16.631C110.286 17.6347 110.994 18.7712 111.496 20.0406C112.028 21.31 112.293 22.5942 112.293 23.893C112.293 25.2805 112.042 26.6089 111.541 27.8783C111.068 29.1477 110.389 30.2842 109.504 31.2879C108.648 32.2916 107.6 33.0887 106.36 33.6791C105.12 34.2695 103.747 34.5647 102.242 34.5647H95.8652V44.705H88.6031ZM95.8652 28.2326H101.799C102.655 28.2326 103.393 27.8636 104.013 27.1255C104.633 26.3875 104.943 25.31 104.943 23.893C104.943 23.155 104.839 22.5203 104.633 21.989C104.456 21.4576 104.205 21.0148 103.88 20.6606C103.555 20.3063 103.186 20.0554 102.773 19.9078C102.36 19.7307 101.946 19.6421 101.533 19.6421H95.8652V28.2326Z" fill="black"/>
<path d="M122.749 13.2657H129.303L140.771 44.705H133.332L130.897 37.6643H121.111L118.72 44.705H111.28L122.749 13.2657ZM129.701 32.6606L126.026 21.5462L122.262 32.6606H129.701Z" fill="black"/>
<path d="M143.868 44.705V13.2657H158.037C159.513 13.2657 160.871 13.5756 162.111 14.1956C163.381 14.8155 164.473 15.6273 165.388 16.631C166.303 17.6347 167.012 18.7712 167.513 20.0406C168.045 21.31 168.31 22.5942 168.31 23.893C168.31 24.8672 168.192 25.8119 167.956 26.727C167.72 27.6126 167.381 28.454 166.938 29.251C166.495 30.0481 165.949 30.7713 165.299 31.4208C164.679 32.0407 163.971 32.5721 163.174 33.0149L170.082 44.705H161.89L155.868 34.5647H151.13V44.705H143.868ZM151.13 28.2326H157.772C158.628 28.2326 159.366 27.834 159.986 27.037C160.606 26.2104 160.916 25.1624 160.916 23.893C160.916 22.5942 160.561 21.5609 159.853 20.7934C159.144 20.0259 158.377 19.6421 157.55 19.6421H151.13V28.2326Z" fill="black"/>
<path d="M171.717 28.7196C171.717 26.8303 172.071 24.9558 172.779 23.096C173.488 21.2067 174.521 19.524 175.879 18.048C177.237 16.572 178.89 15.3764 180.838 14.4613C182.787 13.5461 185.001 13.0886 187.481 13.0886C190.433 13.0886 192.986 13.7233 195.141 14.9926C197.326 16.262 198.949 17.9152 200.012 19.9521L194.433 23.8488C194.078 23.0222 193.621 22.3432 193.06 21.8119C192.529 21.251 191.938 20.8082 191.289 20.4834C190.639 20.1292 189.975 19.893 189.296 19.7749C188.617 19.6273 187.953 19.5535 187.303 19.5535C185.916 19.5535 184.706 19.834 183.672 20.3949C182.639 20.9558 181.783 21.679 181.104 22.5646C180.425 23.4502 179.923 24.4539 179.599 25.5757C179.274 26.6975 179.111 27.834 179.111 28.9853C179.111 30.2252 179.303 31.4208 179.687 32.5721C180.071 33.7234 180.617 34.7418 181.326 35.6274C182.064 36.513 182.934 37.2215 183.938 37.7529C184.971 38.2548 186.123 38.5057 187.392 38.5057C188.041 38.5057 188.706 38.4319 189.385 38.2843C190.093 38.1072 190.757 37.8562 191.377 37.5315C192.027 37.1773 192.617 36.7345 193.148 36.2031C193.68 35.6422 194.108 34.9632 194.433 34.1662L200.366 37.6643C199.894 38.8156 199.185 39.8489 198.241 40.764C197.326 41.6791 196.263 42.4467 195.053 43.0666C193.842 43.6865 192.558 44.1588 191.2 44.4836C189.842 44.8083 188.514 44.9707 187.215 44.9707C184.942 44.9707 182.846 44.5131 180.927 43.598C179.038 42.6533 177.399 41.4134 176.012 39.8784C174.654 38.3433 173.591 36.6016 172.824 34.6533C172.086 32.7049 171.717 30.727 171.717 28.7196Z" fill="black"/>
<path d="M222.882 22.4761C222.793 22.358 222.483 22.1366 221.952 21.8119C221.421 21.4871 220.756 21.1476 219.959 20.7934C219.162 20.4392 218.291 20.1292 217.347 19.8635C216.402 19.5978 215.458 19.465 214.513 19.465C211.915 19.465 210.616 20.3358 210.616 22.0775C210.616 22.6089 210.749 23.0517 211.015 23.406C211.31 23.7602 211.723 24.0849 212.255 24.3801C212.815 24.6458 213.509 24.8967 214.336 25.1329C215.162 25.3691 216.122 25.6348 217.214 25.93C218.72 26.3432 220.077 26.8008 221.288 27.3027C222.498 27.775 223.517 28.3802 224.343 29.1182C225.199 29.8267 225.849 30.6975 226.292 31.7307C226.764 32.7639 227 34.0038 227 35.4503C227 37.2215 226.661 38.7271 225.982 39.9669C225.332 41.1773 224.461 42.1662 223.369 42.9337C222.277 43.6718 221.022 44.2179 219.605 44.5721C218.188 44.8969 216.727 45.0592 215.221 45.0592C214.07 45.0592 212.889 44.9707 211.679 44.7935C210.469 44.6164 209.288 44.3655 208.136 44.0408C206.985 43.6865 205.863 43.2732 204.771 42.8009C203.708 42.3286 202.719 41.7824 201.804 41.1625L204.992 34.8304C205.111 34.978 205.494 35.2584 206.144 35.6717C206.793 36.085 207.59 36.4983 208.535 36.9116C209.509 37.3249 210.587 37.6939 211.767 38.0186C212.948 38.3433 214.144 38.5057 215.354 38.5057C217.922 38.5057 219.207 37.7234 219.207 36.1588C219.207 35.5684 219.015 35.0813 218.631 34.6975C218.247 34.3138 217.716 33.9743 217.037 33.6791C216.358 33.3544 215.546 33.0592 214.601 32.7935C213.686 32.5278 212.683 32.2326 211.59 31.9079C210.144 31.465 208.889 30.9927 207.826 30.4909C206.764 29.9595 205.878 29.3543 205.17 28.6754C204.491 27.9964 203.974 27.2141 203.62 26.3285C203.295 25.4429 203.133 24.4097 203.133 23.2288C203.133 21.5757 203.443 20.1144 204.063 18.845C204.683 17.5757 205.524 16.5129 206.587 15.6568C207.649 14.7712 208.874 14.107 210.262 13.6642C211.679 13.2214 213.17 13 214.734 13C215.827 13 216.904 13.1033 217.967 13.31C219.029 13.5166 220.048 13.7823 221.022 14.107C221.996 14.4317 222.897 14.8007 223.723 15.214C224.579 15.6273 225.362 16.0406 226.07 16.4539L222.882 22.4761Z" fill="black"/>
</svg>
