<?xml version="1.0" encoding="utf-8"?>
<!-- Generator: Adobe Illustrator 19.1.0, SVG Export Plug-In . SVG Version: 6.00 Build 0)  -->
<svg version="1.1" xmlns="http://www.w3.org/2000/svg" xmlns:xlink="http://www.w3.org/1999/xlink" x="0px" y="0px" width="24px"
	 height="24px" viewBox="0 0 24 24" enable-background="new 0 0 24 24" xml:space="preserve">
<g id="Bounding_Boxes">
	<g id="ui_x5F_spec_x5F_header_copy_3">
	</g>
	<path fill="none" d="M0,0h24v24H0V0z"/>
	<path fill="none" d="M0,0h24v24H0V0z"/>
</g>
<g id="Rounded">
	<g id="ui_x5F_spec_x5F_header_copy_5">
	</g>
	<g>
		<path d="M13.12,2.06L7.58,7.6C7.21,7.97,7,8.48,7,9.01V19c0,1.1,0.9,2,2,2h9c0.8,0,1.52-0.48,1.84-1.21l3.26-7.61
			C23.94,10.2,22.49,8,20.34,8h-5.65l0.95-4.58c0.1-0.5-0.05-1.01-0.41-1.37l0,0C14.64,1.47,13.7,1.47,13.12,2.06z"/>
		<path d="M3,21L3,21c1.1,0,2-0.9,2-2v-8c0-1.1-0.9-2-2-2h0c-1.1,0-2,0.9-2,2v8C1,20.1,1.9,21,3,21z"/>
	</g>
</g>
</svg>
