<?xml version="1.0" encoding="utf-8"?>
<!-- Generator: Adobe Illustrator 19.1.0, SVG Export Plug-In . SVG Version: 6.00 Build 0)  -->
<svg version="1.1" xmlns="http://www.w3.org/2000/svg" xmlns:xlink="http://www.w3.org/1999/xlink" x="0px" y="0px" width="24px"
	 height="24px" viewBox="0 0 24 24" enable-background="new 0 0 24 24" xml:space="preserve">
<g id="Bounding_Boxes">
	<g id="ui_x5F_spec_x5F_header_copy_3">
	</g>
	<path fill="none" d="M0,0h24v24H0V0z"/>
	<path fill="none" d="M0,0h24v24H0V0z"/>
</g>
<g id="Rounded">
	<g id="ui_x5F_spec_x5F_header_copy_5">
	</g>
	<g>
		<path d="M10.88,21.94l5.53-5.54c0.37-0.37,0.58-0.88,0.58-1.41V5c0-1.1-0.9-2-2-2H6C5.2,3,4.48,3.48,4.17,4.21l-3.26,7.61
			C0.06,13.8,1.51,16,3.66,16h5.65l-0.95,4.58c-0.1,0.5,0.05,1.01,0.41,1.37l0,0C9.36,22.53,10.3,22.53,10.88,21.94z"/>
		<path d="M21,3L21,3c-1.1,0-2,0.9-2,2v8c0,1.1,0.9,2,2,2h0c1.1,0,2-0.9,2-2V5C23,3.9,22.1,3,21,3z"/>
	</g>
</g>
</svg>
